<?xml version="1.0" encoding="utf-8"?>
<!-- Generator: Adobe Illustrator 16.0.0, SVG Export Plug-In . SVG Version: 6.00 Build 0)  -->
<!DOCTYPE svg PUBLIC "-//W3C//DTD SVG 1.1//EN" "http://www.w3.org/Graphics/SVG/1.1/DTD/svg11.dtd">
<svg version="1.1" id="Layer_1" xmlns="http://www.w3.org/2000/svg" xmlns:xlink="http://www.w3.org/1999/xlink" x="0px" y="0px"
	 width="864px" height="250px" viewBox="0 0 864 250" enable-background="new 0 0 864 250" xml:space="preserve">
<g>
	<path fill="#EDEAF7" d="M359.749,165.564h-53.84L293.656,189.7h-29.147l66.278-130.144h7.611L399.85,189.7h-28.774L359.749,165.564
		z M347.496,139.574l-13.553-28.963l-14.667,28.963H347.496z"/>
	<path fill="#EDEAF7" d="M446.824,134.561c-4.271-1.111-12.252-3.156-19.678-8.168c-10.396-6.869-16.152-16.895-16.709-29.333
		c-0.559-10.396,2.783-19.493,9.469-26.548c9.65-10.025,23.578-12.811,30.26-12.811c18.938,0,29.52,6.87,38.988,12.996l4.27,2.784
		l-13.553,22.094l-4.641-2.971c-8.355-5.385-13.738-8.912-25.064-8.912c-1.67,0-8.168,1.301-11.51,4.828
		c-1.113,1.113-2.414,3.155-2.229,7.426c0.188,6.684,4.828,10.396,16.709,13.367c1.486,0.371,2.602,0.742,3.713,1.113
		c12.439,4.271,22.096,10.025,28.777,17.268c6.684,7.427,10.211,16.15,10.211,25.435c0,9.099-3.896,18.565-10.396,25.808
		c-7.611,8.539-18.193,13.366-29.893,13.366c-5.756,0-13.553-0.372-22.836-3.155c-11.695-3.713-22.092-10.211-31.004-19.681
		l18.938-17.821c13.736,14.666,29.146,14.666,34.9,14.666c10.77,0,14.295-9.84,14.295-13.183c0-7.054-7.98-13.552-21.535-18.194
		l-0.557-0.186L446.824,134.561z"/>
	<path fill="#EDEAF7" d="M607.975,59.557v25.992h-36.016V189.7h-25.992V85.549h-36.203V59.557H607.975z"/>
	<path fill="#EDEAF7" d="M690.781,189.7l-24.32-52.169h-12.996v51.982h-25.992V59.371h49.016c21.534,0,38.984,17.637,38.984,39.174
		c0,15.779-9.281,29.332-22.836,35.459l25.809,55.696H690.781z M653.465,85.363v26.177h23.021c7.238,0,12.996-5.755,12.996-12.995
		c0-7.241-5.758-13.182-12.996-13.182H653.465z"/>
	<path fill="#EDEAF7" d="M823.898,165.564h-53.842l-12.25,24.136H728.66l66.278-130.144h7.61L864,189.7h-28.775L823.898,165.564z
		 M811.646,139.574l-13.555-28.963l-14.668,28.963H811.646z"/>
</g>
<g>
	<path fill="#EDEAF7" d="M124,5c32.053,0,62.188,12.482,84.853,35.147S244,92.947,244,125c0,32.053-12.482,62.188-35.147,84.854
		C186.188,232.518,156.053,245,124,245s-62.188-12.482-84.853-35.146C16.482,187.188,4,157.053,4,125s12.482-62.188,35.147-84.853
		S91.947,5,124,5 M124,1C55.517,1,0,56.517,0,125c0,68.482,55.517,124,124,124s124-55.518,124-124C248,56.517,192.483,1,124,1L124,1
		z"/>
</g>
<g>
	<path fill="#EDEAF7" d="M122.508,56.006c-0.003-0.002-0.005-0.004-0.008-0.006c-20.998,44.329-42.002,88.671-63,133
		c8.999,0,18.001,0,27,0c16.994-34.32,33.993-68.651,50.986-102.972L122.508,56.006z"/>
</g>
<path fill="#EDEAF7" d="M150.5,111c-8.666,17.998-17.334,36.002-26,54l-0.5,1h0.5c8.333,0,16.668,0,25,0
	c3.333,7.666,6.667,15.334,10,23c9.666,0,19.334,0,29,0C175.835,163.002,163.166,136.998,150.5,111z"/>
</svg>
