<svg xmlns="http://www.w3.org/2000/svg" width="100" height="100" viewBox="0 0 100 100">
    <defs>
        <linearGradient id="a" x1="100%" x2="0%" y1="50%" y2="50%">
            <stop offset="0%" stop-color="#F93"/>
            <stop offset="100%" stop-color="#F86EB8"/>
        </linearGradient>
    </defs>
    <g fill="none" fill-rule="evenodd">
        <circle cx="50" cy="50" r="50" fill="url(#a)"/>
        <path fill="#FFF" fill-rule="nonzero" d="M75.899 25.446H52.645v-5.3c0-1.185-.96-2.146-2.142-2.146-1.183 0-2.143.96-2.143 2.146v5.3H25.101c-3.92.006-7.095 3.187-7.101 7.114v31.758c.006 3.926 3.182 7.108 7.101 7.114h12.66l-3.116 7.58a2.15 2.15 0 1 0 3.963 1.663l3.786-9.243h16.212l3.786 9.216a2.142 2.142 0 0 0 3.958.006 2.15 2.15 0 0 0 .005-1.642l-3.117-7.58h12.66c3.92-.006 7.096-3.188 7.102-7.114V32.56c-.006-3.927-3.182-7.108-7.101-7.114zm2.817 38.872a2.825 2.825 0 0 1-2.817 2.822H25.1a2.825 2.825 0 0 1-2.817-2.822V32.56a2.825 2.825 0 0 1 2.817-2.822H75.9a2.825 2.825 0 0 1 2.817 2.822v31.758zM46.516 60a4.484 4.484 0 0 1-3.196-1.333A4.572 4.572 0 0 1 42 55.44V40.564a4.562 4.562 0 0 1 2.311-3.986 4.474 4.474 0 0 1 4.574.103l11.967 7.438A4.57 4.57 0 0 1 63 48.002a4.57 4.57 0 0 1-2.148 3.883l-11.967 7.443a4.479 4.479 0 0 1-2.369.672zm0-19.769a.342.342 0 0 0-.33.333V55.44a.307.307 0 0 0 .168.29c.1.065.23.065.33 0l11.972-7.448a.334.334 0 0 0 0-.56L46.69 40.284a.328.328 0 0 0-.167-.053h-.006z"/>
    </g>
</svg>
