<svg xmlns="http://www.w3.org/2000/svg" width="63" height="65" viewBox="0 0 63 65">
    <path fill="#FFF" fill-rule="nonzero" d="M61.315 1.692c-3.698-3.708-17.29-1.567-27.737 8.871a63.334 63.334 0 0 0-5.755 6.61c-4.091-1.007-9.246.519-13.522 4.13l-4.336 3.66a2.483 2.483 0 0 0-.703 3.075 2.224 2.224 0 0 0 2.63 1.04c3.514-1.04 6.722-.763 8.936.735-.069.222-.134.462-.194.656l-3.351 3.352 11.894 11.89 3.356-3.352.652-.198c1.503 2.219 1.775 5.427.74 8.94A2.205 2.205 0 0 0 36.038 54a2.617 2.617 0 0 0 1.997-.976l3.656-4.345c3.606-4.29 5.136-9.426 4.124-13.522a63.893 63.893 0 0 0 6.615-5.75C62.87 18.953 65.014 5.394 61.315 1.691zM42.56 32.966l-1.197.864.578 1.36c1.257 2.958 0 7.424-3.079 11.094l-.62.735c.07-2.83-.865-5.593-2.639-7.799l-1.211-1.446-1.225.462c-.672.256-1.357.476-2.053.656l-.49.125-1.447 1.447-6.666-6.652 1.447-1.452.125-.462c.18-.696.398-1.38.652-2.053l.462-1.225-1.442-1.211a11.968 11.968 0 0 0-7.799-2.635l.735-.62c3.698-3.102 8.155-4.34 11.095-3.083l1.359.578.864-1.193a61.091 61.091 0 0 1 6.19-7.28 33.51 33.51 0 0 1 14.516-8.72c4.766-1.313 7.466-.652 7.97-.152.504.499 1.16 3.208-.153 7.974a33.428 33.428 0 0 1-8.718 14.535 61.022 61.022 0 0 1-7.254 6.153zM5.95 52a1.949 1.949 0 0 1-1.378-3.327L15.64 37.605a1.949 1.949 0 1 1 2.752 2.757L7.33 51.43c-.366.365-.862.57-1.379.57zm17.863-4.482a1.888 1.888 0 0 1 2.667 2.673l-6.255 6.255a1.889 1.889 0 1 1-2.672-2.672l6.26-6.256zm-.374-4.982c.36.344.561.812.561 1.299 0 .487-.202.954-.561 1.298L3.268 64.463a1.972 1.972 0 0 1-2.707 0 1.784 1.784 0 0 1 0-2.598l20.175-19.329a1.971 1.971 0 0 1 2.703 0z"/>
</svg>
